<svg width="31" height="31" viewBox="0 0 31 31" fill="none" xmlns="http://www.w3.org/2000/svg">
<path d="M20 16.8305L15.5 21.3305ZM15.5 21.3305L11 16.8305ZM15.5 21.3305V9.33046ZM15.5 28.8305C13.7272 28.8305 11.9717 28.4813 10.3338 27.8028C8.69588 27.1244 7.20765 26.13 5.95406 24.8764C4.70047 23.6228 3.70607 22.1346 3.02763 20.4967C2.34919 18.8588 2 17.1033 2 15.3305C2 13.5576 2.34919 11.8021 3.02763 10.1642C3.70607 8.52634 4.70047 7.03811 5.95406 5.78452C7.20765 4.53093 8.69588 3.53652 10.3338 2.85809C11.9717 2.17965 13.7272 1.83046 15.5 1.83046C19.0804 1.83046 22.5142 3.25278 25.0459 5.78452C27.5777 8.31626 29 11.75 29 15.3305C29 18.9109 27.5777 22.3447 25.0459 24.8764C22.5142 27.4081 19.0804 28.8305 15.5 28.8305Z" fill="#4B67FA"/>
<path d="M20 16.8305L15.5 21.3305M15.5 21.3305L11 16.8305M15.5 21.3305V9.33046M15.5 28.8305C13.7272 28.8305 11.9717 28.4813 10.3338 27.8028C8.69588 27.1244 7.20765 26.13 5.95406 24.8764C4.70047 23.6228 3.70607 22.1346 3.02763 20.4967C2.34919 18.8588 2 17.1033 2 15.3305C2 13.5576 2.34919 11.8021 3.02763 10.1642C3.70607 8.52634 4.70047 7.03811 5.95406 5.78452C7.20765 4.53093 8.69588 3.53652 10.3338 2.85809C11.9717 2.17965 13.7272 1.83046 15.5 1.83046C19.0804 1.83046 22.5142 3.25278 25.0459 5.78452C27.5777 8.31626 29 11.75 29 15.3305C29 18.9109 27.5777 22.3447 25.0459 24.8764C22.5142 27.4081 19.0804 28.8305 15.5 28.8305Z" stroke="white" stroke-width="3" stroke-linecap="round" stroke-linejoin="round"/>
</svg>
