<svg width="23" height="23" viewBox="0 0 23 23" fill="none" xmlns="http://www.w3.org/2000/svg">
<path d="M3.90211 20.008C5.90833 21.766 8.53954 22.8305 11.4152 22.8305C14.2938 22.8305 16.9221 21.766 18.9322 20.008C20.7177 18.1892 14.8265 11.7234 11.4152 9.1474C8.00778 11.7234 2.11277 18.1892 3.90211 20.008ZM14.5183 6.30406C16.8964 9.12077 21.6376 16.1145 20.2982 18.5868C21.8811 16.6282 22.8305 14.1368 22.8305 11.419C22.8305 8.2418 21.532 5.36706 19.4344 3.299C19.4344 3.299 19.4087 3.27807 19.3564 3.25905C19.2965 3.23812 19.2118 3.21624 19.0891 3.21624C18.526 3.21624 17.2008 3.62909 14.5183 6.30406ZM3.47594 3.25905C3.42172 3.27807 3.39793 3.29805 3.39413 3.299C1.29848 5.36706 0 8.2418 0 11.419C0 14.134 0.949367 16.6253 2.53133 18.5849C1.1986 16.1069 5.93592 9.11887 8.31504 6.30406C5.63246 3.62814 4.30449 3.21719 3.74324 3.21719C3.61863 3.21719 3.53111 3.23717 3.47594 3.26095V3.25905ZM11.4152 3.37796C11.4152 3.37796 8.61374 1.73892 6.42582 1.66092C5.56683 1.62952 5.04268 1.94154 4.97894 1.9834C7.01942 0.61452 9.18831 0 11.4 0H11.4152C13.6355 0 15.7958 0.61452 17.8515 1.9834C17.7868 1.93964 17.2665 1.62952 16.4056 1.66092C14.2177 1.73892 11.4152 3.37225 11.4152 3.37225V3.37796Z" fill="#4B67FA"/>
</svg>
